# xmcd
#
# Track frame offsets:
#	150
#	24425
#	47057
#	66055
#	86617
#	106062
#	125975
#	150212
#	175207
#	199782
#	228705
#	252427
#	277292
#
# Disc length: 4288 seconds
#
# Revision: 1
# Processed by: cddbd v1.5.1PL0 Copyright (c) Steve Scherf et al.
# Submitted via: CDex 1.50Beta5
#
DISCID=b410be0d
DTITLE=MISIA - KISS IN THE SKY
DYEAR=2002
DGENRE=Rock
TTITLE0=眠れぬ夜は君のせい
TTITLE1=over bit
TTITLE2=Destiny’s rule
TTITLE3=LAILA
TTITLE4=恋唄
TTITLE5=Don’t stop music!
TTITLE6=Fly away
TTITLE7=Always
TTITLE8=風に吹かれて
TTITLE9=果てなく続くストーリー
TTITLE10=Shining Star
TTITLE11=太陽がいるから
TTITLE12=飛び方を忘れた小さな鳥
EXTD=
EXTT0=
EXTT1=
EXTT2=
EXTT3=
EXTT4=
EXTT5=
EXTT6=
EXTT7=
EXTT8=
EXTT9=
EXTT10=
EXTT11=
EXTT12=
PLAYORDER=
